<?xml version="1.0" standalone="no"?>
<!DOCTYPE svg PUBLIC "-//W3C//DTD SVG 20010904//EN"
 "http://www.w3.org/TR/2001/REC-SVG-20010904/DTD/svg10.dtd">
<svg version="1.0" xmlns="http://www.w3.org/2000/svg"
 width="256.000000pt" height="256.000000pt" viewBox="0 0 256.000000 256.000000"
 preserveAspectRatio="xMidYMid meet">
<metadata>
Created by potrace 1.14, written by Peter Selinger 2001-2017
</metadata>
<g transform="translate(0.000000,256.000000) scale(0.100000,-0.100000)"
fill="#000000" stroke="none">
<path d="M1786 2540 c-56 -28 -85 -58 -111 -113 l-23 -48 -1 -805 c0 -442 -3
-816 -7 -832 -12 -51 -58 -135 -95 -173 -108 -110 -277 -148 -409 -91 -64 28
-145 94 -174 145 -47 80 -57 124 -60 268 -3 112 -7 143 -25 182 -32 71 -100
116 -187 124 -45 4 -63 1 -109 -22 -105 -51 -133 -117 -129 -308 2 -150 11
-207 45 -311 79 -237 283 -437 524 -514 103 -33 167 -41 295 -38 199 6 369 76
523 217 129 117 233 317 255 489 4 30 7 422 7 870 l0 815 -22 40 c-11 22 -34
52 -50 67 -59 57 -174 74 -247 38z"/>
</g>
</svg>
